<svg xmlns="http://www.w3.org/2000/svg" viewBox="0 0 32 32" width="32" height="32">
  <rect width="32" height="32" rx="8" fill="url(#grad)" />
  <defs>
    <linearGradient id="grad" x1="0%" y1="0%" x2="100%" y2="100%">
      <stop offset="0%" stop-color="#6366f1" />
      <stop offset="100%" stop-color="#a855f7" />
    </linearGradient>
  </defs>
  <path d="M10 8h12a2 2 0 0 1 2 2v12a2 2 0 0 1-2 2H10a2 2 0 0 1-2-2V10a2 2 0 0 1 2-2zm0 2v3h2v-3H10zm0 5v2h2v-2H10zm0 4v3h2v-3H10zm10-9v3h2v-3h-2zm0 5v2h2v-2h-2zm0 4v3h2v-3h-2z" fill="#ffffff" />
</svg>
